PathFileType	4	(X/Y/Z)	/Users/visionmauri/4_1_1_f_Sports2D/4_1_1_f_Sports2D_m_person00.trc
DataRate	CameraRate	NumFrames	NumMarkers	Units	OrigDataRate	OrigDataStartFrame	OrigNumFrames
30.0	30.0	6	22	m	30.0	266	355
Frame#	Time	Hip			RHip			RKnee			RAnkle			RBigToe			RSmallToe			RHeel			LHip			LKnee			LAnkle			LBigToe			LSmallToe			LHeel			Neck			Head			Nose			RShoulder			RElbow			RWrist			LShoulder			LElbow			LWrist			
		X1	Y1	Z1	X2	Y2	Z2	X3	Y3	Z3	X4	Y4	Z4	X5	Y5	Z5	X6	Y6	Z6	X7	Y7	Z7	X8	Y8	Z8	X9	Y9	Z9	X10	Y10	Z10	X11	Y11	Z11	X12	Y12	Z12	X13	Y13	Z13	X14	Y14	Z14	X15	Y15	Z15	X16	Y16	Z16	X17	Y17	Z17	X18	Y18	Z18	X19	Y19	Z19	X20	Y20	Z20	X21	Y21	Z21	X22	Y22	Z22
266	8.891713747645952	1.404634236612234	0.8536172534031027	0.0301	1.30823761988486	0.8907146333193706	0.0301	1.1577423273231144	0.6129722921788561	0.129	1.0136055102577626	0.3084728804324588	0.023	0.96668332478745	0.24295306376930553	0.2179	0.9336271991913186	0.3018898231620849	0.1804	1.1317274266899124	0.527327516490752	-0.0119	1.5104882451365824	0.7997265634803199	0.0301	1.3752759349822952	0.44277057684315035	0.129	1.2292642802317015	0.06923792138655147	0.023	1.2189665759362802	-0.04010727189369331	0.2179	1.2807931822835912	-0.052126895086495165	0.1804	1.1922022618965809	0.022434224223918286	-0.0119	1.617727294442452	1.3623546925994272	0.0008	1.6841811315964403	1.6207742943523764	0.0655	1.5972670168746066	1.4343078660514046	0.1076	1.4424589835216721	1.3878473594603293	-0.01275	1.2386895624382466	1.1796446307954291	0.0702	1.0414326274055141	1.0260349480015774	0.1076	1.7842733569239035	1.2640044842303773	-0.01275	1.7490134867475424	0.9853763513331499	0.0702	1.7091938740425108	0.7848023219563028	0.1076
267	8.925141242937853	1.403837652859028	0.8512479966708956	0.0301	1.3071383068412623	0.890579774852119	0.0301	1.1617824011409743	0.618936980388601	0.129	1.0790576855266976	0.48624698180325676	0.023	1.039679652456402	0.42618971338187844	0.2179	0.9997023281264049	0.4847643018179159	0.1804	1.1780851201066358	0.6597971664176284	-0.0119	1.5100583210719694	0.7971329452432254	0.0301	1.3759092646502458	0.4412646495392464	0.129	1.229181571093286	0.06947941719977681	0.023	1.2201010736862188	-0.041264489454350815	0.2179	1.2794719853307774	-0.051687026898950564	0.1804	1.1900636527120452	0.02268544878215145	-0.0119	1.6133036645233574	1.3637934533136165	0.0008	1.6766028688835506	1.6218746385962197	0.0655	1.5957591032647873	1.4333094544258587	0.1076	1.4383092989779276	1.386378713021854	-0.01275	1.2365062728312124	1.1800462335593684	0.0702	1.0394339198783686	1.0260467043397548	0.1076	1.7801007073241457	1.2667498956443008	-0.01275	1.7467487094575842	0.9867877638569105	0.0702	1.7094460333298247	0.7813283352133359	0.1076
268	8.958568738229756	1.4040626443451243	0.8511279843698315	0.0301	1.307127534463763	0.8889214649913528	0.0301	1.1642711391067408	0.6207186760248704	0.129	1.125612832834007	0.606816687904728	0.023	1.0942735691781695	0.5559833083925146	0.2179	1.0510168371570885	0.6034073783902667	0.1804	1.1795034659626105	0.6569925533166986	-0.0119	1.5089442696232611	0.7963746743587731	0.0301	1.3757307072998992	0.44131479080614266	0.129	1.2295203928601652	0.06995142051750683	0.023	1.223074626503106	-0.04401067971979505	0.2179	1.2803190585019233	-0.05157598578165252	0.1804	1.187812960194874	0.02293795470206265	-0.0119	1.6080297963793375	1.3655660445388162	0.0008	1.6693855161789586	1.6231376770124812	0.0655	1.5945660538308322	1.4327628098860732	0.1076	1.4324418628467679	1.384817142201107	-0.01275	1.2338682047836547	1.1801155373454097	0.0702	1.0378813528920787	1.0264302183639862	0.1076	1.7760474574115601	1.2707268554654028	-0.01275	1.7435337300992488	0.9882243965610774	0.0702	1.709808103288813	0.7806482422971093	0.1076
269	8.991996233521657	1.4045758357497087	0.8512232105767793	0.0301	1.3065327465535685	0.8836854369246204	0.0301	1.16340969303197	0.6143482469141492	0.129	1.1444444293741456	0.6440307639078453	0.023	1.1196488589350537	0.5969778207845691	0.2179	1.0813389894436105	0.6422240548897256	0.1804	1.1721813393077376	0.6230645564548205	-0.0119	1.506258342060079	0.7960004432308041	0.0301	1.374799005517612	0.4413946410952839	0.129	1.230274790026058	0.07044196510189314	0.023	1.226527202690302	-0.046793887163296424	0.2179	1.2836100775680115	-0.05198030229354924	0.1804	1.1872655774714003	0.02330041829737604	-0.0119	1.603131035914145	1.3673105947962239	0.0008	1.6617951706867402	1.6249537480157723	0.0655	1.5873699982853737	1.4353623957974875	0.1076	1.4239107242923166	1.3837929251275332	-0.01275	1.227123077748391	1.1776612150385584	0.0702	1.0337888687859014	1.024201104039338	0.1076	1.772291140715725	1.2747187821055537	-0.01275	1.741660567064007	0.9891251723804302	0.0702	1.7104138432558464	0.780768653417631	0.1076
270	9.02542372881356	1.4044365187426129	0.8505915946747893	0.0301	1.3050604962853232	0.8777006719232963	0.0301	1.1578217423740533	0.5980099170477771	0.129	1.1494935857270756	0.6492206130479754	0.023	1.1251706247669278	0.592711983989823	0.2179	1.1012371732855788	0.6481054887881503	0.1804	1.177645522295951	0.6297656621659947	-0.0119	1.502328753442122	0.7965313225987879	0.0301	1.373475663763577	0.4416360103326727	0.129	1.230563571251082	0.07191566147143753	0.023	1.2275752167039802	-0.0478111237165488	0.2179	1.2861315288379447	-0.05193040095757583	0.1804	1.1872336357946363	0.02451155131818427	-0.0119	1.5979726280537467	1.3697311924171194	0.0008	1.6523381714743173	1.6266612900377433	0.0655	1.5754280944246617	1.4387323543067057	0.1076	1.4142327661385332	1.3831412083476973	-0.01275	1.2177597373368805	1.1737804663411746	0.0702	1.0284428184415917	1.0208610587673799	0.1076	1.7672623836572843	1.278894426926196	-0.01275	1.7424158989508	0.990520614471835	0.0702	1.7100516668329544	0.7789410802617212	0.1076
271	9.058851224105462	1.4032418153543924	0.8497917284020965	0.0301	1.3030819037339085	0.874621427218649	0.0301	1.1505665713523756	0.5787836486977842	0.129	1.1375885649771726	0.6139650061246287	0.023	1.1059702480680502	0.5394061014643043	0.2179	1.1008074973099862	0.6057093776739917	0.1804	1.188275941804705	0.6597141389030546	-0.0119	1.4984777739737574	0.798522313287481	0.0301	1.372191771022095	0.44296965841545605	0.129	1.2298163708740826	0.07425850844038627	0.023	1.2261753666141446	-0.04658671638584559	0.2179	1.2857848287943143	-0.05066902068574686	0.1804	1.1858416988245115	0.026215384377322033	-0.0119	1.5904918418591159	1.373683784199765	0.0008	1.641107240033463	1.627745818889034	0.0655	1.563803206989008	1.4404074107182516	0.1076	1.4047731232577874	1.3820541335599303	-0.01275	1.2089215242123048	1.170675091394032	0.0702	1.024114626577948	1.0195883238853698	0.1076	1.7600268053991024	1.285066119081104	-0.01275	1.744694960652387	0.9932227086371862	0.0702	1.7088151239513742	0.7753113092658901	0.1076
